<svg width="1788" height="271" viewBox="0 0 1788 271" fill="none" xmlns="http://www.w3.org/2000/svg">
<g clip-path="url(#clip0_6_9)">
<path d="M2.83103 267.199C-0.943676 267.199 -0.943676 264.539 2.83103 264.539C24.7243 264.539 29.254 261.877 31.1412 213.988C32.2738 187.762 31.5187 135.31 31.5187 117.826C31.5187 100.342 30.3863 62.7138 30.3863 41.8091C30.3863 7.60162 29.6314 7.22154 5.47332 7.22154C2.45357 7.22154 2.45357 3.80078 5.47332 3.80078C8.49307 3.80078 45.8626 4.56095 51.5246 4.56095C57.1867 4.56095 102.106 3.80078 113.052 3.80078C190.812 3.80078 257.247 56.2524 257.247 135.69C257.247 213.607 195.718 267.199 114.562 267.199C103.615 267.199 68.8882 266.059 56.0543 266.059C34.5384 266.059 16.7974 266.818 2.83103 267.199ZM223.652 135.69C223.652 57.3927 179.864 7.22154 112.297 7.22154H87.3844C61.7164 7.22154 61.3389 9.12197 61.3389 102.243V206.005C61.3389 235.273 59.829 255.417 58.3192 261.877C67.3785 261.877 98.3311 263.398 115.317 263.398C183.64 263.398 223.652 213.607 223.652 135.69Z" fill="#012C4E"/>
<path d="M404.478 271C333.512 271 272.74 213.607 272.74 135.69C272.74 56.2524 335.777 0 406.741 0C477.707 0 539.611 57.3928 539.611 135.69C539.611 213.607 475.442 271 404.478 271ZM402.967 267.199C464.496 267.199 506.017 213.607 506.017 135.69C506.017 57.3928 469.779 3.80084 408.252 3.80084C346.346 3.80084 306.712 57.3928 306.712 135.69C306.712 213.607 341.44 267.199 402.967 267.199Z" fill="#012C4E"/>
<path d="M541.855 267.199C538.835 267.199 538.835 263.778 541.855 263.778C551.292 263.778 556.955 263.398 559.219 263.019C564.504 257.698 566.013 249.334 566.769 228.81C567.524 207.905 567.901 170.278 567.901 152.794V102.243C567.901 8.74189 566.013 7.22154 547.518 7.22154H540.723C537.704 7.22154 537.704 3.80078 540.723 3.80078C551.292 3.80078 576.961 4.94103 582.622 4.94103C587.907 4.94103 622.634 3.80078 629.051 3.80078C693.976 3.80078 725.683 26.2257 725.683 66.5146C725.683 100.342 684.917 121.247 645.282 127.708C677.368 128.468 690.579 140.251 715.114 190.043C746.444 256.937 753.617 263.778 776.643 263.778H779.284C782.681 263.778 783.058 267.199 779.284 267.199H765.695C752.483 267.199 745.312 268.719 739.649 268.719C731.346 268.719 726.438 266.44 720.4 259.598C712.472 250.476 701.903 232.611 689.068 202.205C660.759 136.45 649.813 131.129 612.065 130.369H596.589V168.757C596.589 262.258 598.476 263.778 616.973 263.778H624.522C627.542 263.778 627.542 267.199 624.522 267.199C613.953 267.199 588.661 266.44 583.378 266.44C577.715 266.44 544.875 267.199 541.855 267.199ZM596.589 64.6142V126.568C604.138 126.188 613.575 126.188 628.296 126.188C657.362 126.188 692.088 109.084 692.088 66.1345C692.088 26.6059 673.216 7.22154 626.031 7.22154H611.31C597.344 7.22154 596.589 8.74188 596.589 64.6142Z" fill="#012C4E"/>
<path d="M791.591 102.243C791.591 8.74189 789.702 7.22154 771.207 7.22154H763.279C760.261 7.22154 760.261 3.80078 763.279 3.80078C773.85 3.80078 801.028 4.94103 806.311 4.94103C811.974 4.94103 838.397 3.80078 848.966 3.80078C851.986 3.80078 851.986 7.22154 848.966 7.22154H841.039C822.543 7.22154 820.656 8.74189 820.656 102.243V168.757C820.656 262.258 822.543 263.778 841.039 263.778H848.966C851.986 263.778 851.986 267.199 848.966 267.199C838.397 267.199 811.974 266.059 806.311 266.059C801.028 266.059 773.85 267.199 763.279 267.199C760.261 267.199 760.261 263.778 763.279 263.778H771.207C789.702 263.778 791.591 262.258 791.591 168.757V102.243Z" fill="#012C4E"/>
<path d="M967.964 174.079C949.467 174.079 911.721 172.938 900.396 172.558L893.979 188.901C887.561 204.865 880.39 228.81 880.39 245.535C880.39 257.698 887.94 264.159 901.529 264.159C904.549 264.159 910.587 263.019 912.098 263.019C913.985 263.019 914.741 263.778 914.741 264.918C914.741 266.059 913.985 267.199 910.21 267.199C903.416 267.199 873.595 266.44 867.178 266.44C862.272 266.44 845.286 267.199 835.849 267.199C834.338 267.199 833.583 266.44 833.583 265.298C833.583 264.539 834.717 263.778 835.849 263.778H837.358C847.929 263.778 856.609 255.797 864.537 240.973C873.973 224.63 883.41 202.965 889.45 187.001L962.302 3.80079C962.679 3.0406 963.056 2.66052 964.944 2.66052H968.719C970.982 2.66052 972.116 3.0406 972.493 3.80079L1041.19 168.757C1078.56 257.698 1084.22 263.778 1102.34 263.778H1105.36C1107.25 263.778 1108 264.539 1108 265.298C1108 266.44 1107.25 267.199 1105.74 267.199C1094.79 267.199 1073.28 266.059 1067.61 266.059C1061.95 266.059 1032.89 267.199 1021.94 267.199C1018.92 267.199 1017.79 263.778 1020.81 263.778H1028.74C1045.35 263.778 1047.99 256.937 1012.13 172.938L967.964 174.079ZM1010.24 168.757L953.996 36.1079L901.529 169.517L965.699 169.137H1010.24V168.757Z" fill="#012C4E"/>
<path d="M1122.89 266.675C1115.96 267.025 1110.58 267.199 1106.77 267.199C1103.3 267.199 1100 267.199 1096.88 267.199C1094.8 267.199 1093.76 266.501 1093.76 265.104C1093.76 263.358 1094.8 262.484 1096.88 262.484C1107.29 262.484 1113.7 259.69 1116.13 254.103C1118.91 248.514 1120.29 232.1 1120.29 204.858V142.256V79.6539C1120.29 70.5734 1118.21 61.3183 1114.05 51.8888C1109.89 42.4591 1104.69 34.7756 1098.44 28.8385C1097.75 28.14 1097.4 27.6162 1097.4 27.2669C1097.4 26.5684 1097.75 26.0445 1098.44 25.6953C1105.73 22.2028 1111.45 19.2342 1115.61 16.7895C1119.77 13.9955 1123.07 11.3762 1125.5 8.93143C1126.19 8.23293 1126.71 8.05831 1127.06 8.40757C1127.4 8.40757 1127.92 8.7568 1128.62 9.4553C1134.51 15.3925 1139.37 23.5998 1143.18 34.0771C1147 44.5546 1148.91 55.032 1148.91 65.5093C1165.21 43.1576 1181.86 26.743 1198.85 16.2656C1215.85 5.43896 1234.06 0.0256348 1253.48 0.0256348C1282.27 0.0256348 1303.77 9.10605 1317.99 27.2669C1332.56 45.4277 1339.84 72.6689 1339.84 108.99V215.86C1339.84 223.543 1340.02 230.004 1340.37 235.242C1340.71 240.133 1341.23 244.324 1341.93 247.816C1343.31 253.405 1345.22 257.245 1347.65 259.342C1350.42 261.436 1356.15 262.484 1364.82 262.484C1366.9 262.484 1367.94 263.358 1367.94 265.104C1367.94 266.501 1366.9 267.199 1364.82 267.199C1364.12 267.199 1362.91 267.199 1361.18 267.199C1359.44 267.199 1355.8 267.025 1350.25 266.675C1341.58 266.675 1335.34 266.675 1331.52 266.675C1328.05 266.327 1325.45 266.151 1323.72 266.151C1322.68 266.151 1321.29 266.151 1319.55 266.151C1317.82 266.151 1314.7 266.327 1310.19 266.675C1303.6 267.025 1298.4 267.199 1294.58 267.199C1291.11 267.199 1287.82 267.199 1284.7 267.199C1282.62 267.199 1281.58 266.501 1281.58 265.104C1281.58 263.358 1282.62 262.484 1284.7 262.484C1296.49 262.484 1303.77 259.342 1306.55 253.055C1309.67 246.768 1311.23 233.322 1311.23 212.717V107.419C1311.23 76.336 1305.33 52.9365 1293.54 37.2203C1281.75 21.5043 1264.23 13.6463 1241 13.6463C1223.65 13.6463 1207.7 18.3611 1193.13 27.7908C1178.56 37.2203 1163.82 52.0634 1148.91 72.3197V167.402V262.484H1175.96C1178.04 262.484 1179.08 263.358 1179.08 265.104C1179.08 266.501 1178.04 267.199 1175.96 267.199C1175.27 267.199 1174.05 267.199 1172.32 267.199C1170.59 267.199 1167.12 267.025 1161.91 266.675C1153.59 266.675 1147.69 266.675 1144.23 266.675C1140.76 266.327 1138.15 266.151 1136.42 266.151C1135.38 266.151 1133.82 266.151 1131.74 266.151C1130 266.151 1127.06 266.327 1122.89 266.675Z" fill="#012C4E"/>
<path d="M1425.9 267.199C1422.89 267.199 1422.89 263.778 1425.9 263.778H1432.7C1451.2 263.778 1453.08 262.258 1453.08 168.757V6.46141C1442.51 6.84149 1430.81 6.84149 1422.13 6.84149C1381.74 6.84149 1367.4 34.9678 1359.85 84.3786L1356.83 106.043C1356.07 108.324 1352.3 108.704 1353.05 106.043L1356.07 84.3786C1361.36 43.3297 1357.96 6.84149 1360.22 5.70124C1362.49 4.561 1380.23 3.04065 1406.28 3.04065C1415.71 3.04065 1450.82 3.80083 1467.43 3.80083C1484.04 3.80083 1490.07 3.04065 1528.2 3.04065C1554.25 3.04065 1572.36 4.561 1574.63 5.70124C1576.89 6.84149 1573.5 43.3297 1579.16 84.3786L1581.8 106.043C1582.56 108.704 1579.16 108.324 1578.4 106.043L1575.01 84.3786C1567.46 34.9678 1553.11 6.84149 1512.35 6.46141H1482.15V168.757C1482.15 262.258 1484.04 263.778 1502.53 263.778H1509.33C1512.35 263.778 1512.35 267.199 1509.33 267.199C1498.76 267.199 1473.09 266.059 1467.8 266.059C1462.14 266.059 1436.47 267.199 1425.9 267.199Z" fill="#012C4E"/>
<path d="M1575.08 267.199C1571.31 267.199 1571.31 264.539 1575.08 264.539C1596.98 264.539 1600.37 261.877 1603.39 213.988C1605.28 187.762 1604.9 137.21 1604.9 102.243C1604.9 8.74189 1601.51 7.22154 1583.01 7.22154H1576.22C1573.2 7.22154 1573.2 3.80078 1576.22 3.80078C1586.78 3.80078 1612.45 4.94103 1618.12 4.94103C1623.4 4.94103 1737.39 3.80078 1750.98 3.80078C1757.78 3.80078 1766.46 4.18086 1768.73 5.32113C1770.61 6.46136 1774.01 34.2075 1779.67 75.2566L1781.18 88.9396C1781.94 91.6003 1778.16 91.2202 1777.41 88.9396L1775.52 75.2566C1768.35 32.6872 1738.91 8.74188 1695.87 8.36178H1647.93C1630.57 8.36178 1633.59 8.74189 1633.59 102.243V128.468H1664.92C1712.1 128.468 1722.3 110.984 1722.3 84.7587V76.7769C1722.3 73.7364 1726.07 73.7364 1726.07 76.7769C1726.07 87.7995 1724.18 125.048 1724.18 130.749C1724.18 136.07 1726.07 177.119 1726.07 182.821C1726.07 185.861 1722.3 185.861 1722.3 182.821V177.119C1722.3 150.893 1712.1 133.029 1664.92 133.029H1633.59V206.005C1633.59 235.273 1632.08 255.417 1630.57 261.877C1641.52 261.877 1690.21 263.019 1701.91 263.019C1745.7 263.019 1776.65 225.009 1781.56 186.242L1783.82 166.097C1784.2 163.816 1788.36 163.816 1787.98 166.477L1785.71 187.001C1778.92 248.956 1776.65 263.398 1774.01 265.679C1772.5 267.199 1749.85 267.199 1723.81 267.199C1697.38 267.199 1628.31 266.059 1628.31 266.059L1575.08 267.199Z" fill="#012C4E"/>
</g>
<defs>
<clipPath id="clip0_6_9">
<rect width="1788" height="271" fill="white"/>
</clipPath>
</defs>
</svg>
